<svg width="16" height="16" viewBox="0 0 16 16" fill="none" xmlns="http://www.w3.org/2000/svg">
<g clip-path="url(#clip0_9_70)">
<path d="M0 0H16V16H0V0Z" fill="#C3C0F8"/>
<path d="M5.95729 8.00181C5.95692 7.49991 5.65147 7.09343 5.27503 7.09393C4.89859 7.09443 4.59375 7.50169 4.59412 8.00362C4.59448 8.50555 4.89994 8.91201 5.27638 8.91149C5.6528 8.911 5.95766 8.50374 5.95729 8.00181ZM5.27638 8.54653C5.05076 8.54653 4.86784 8.30264 4.86784 8.00181C4.86784 7.70097 5.05076 7.45708 5.27638 7.45708C5.502 7.45708 5.68493 7.70096 5.68493 8.00181C5.68493 8.30265 5.50201 8.54653 5.27638 8.54653Z" fill="black"/>
<path d="M12.2216 6.00264H11.4045V2.37115H6.31L5.1402 3.93088V6.00265H4.90597L4.79431 6.44934L4.4797 6.2387L3.95542 6.93775L4.1134 7.35721L3.77838 7.5061V8.49385L4.1134 8.64274L3.95542 9.06217L4.47973 9.76126L4.79431 9.55061L4.90597 9.9973H5.1402V13.6288H11.4045V9.9973H12.2216V6.00264ZM6.22965 2.99032V3.82375H5.60457L6.22965 2.99032ZM4.99858 9.21834L4.93729 9.18565C4.91913 9.17719 4.90233 9.16811 4.88689 9.15843L4.82698 9.12212L4.53282 9.32004L4.28769 8.9914L4.43205 8.59918L4.40481 8.52111L4.38441 8.45209L4.36125 8.37219L4.05074 8.2324V7.76755L4.36397 7.62954L4.38576 7.54785L4.40753 7.48065L4.43477 7.40078L4.28633 7.00856L4.53281 6.68174L4.82697 6.87421L4.88689 6.8379L4.93729 6.81246L4.99858 6.78161L5.10209 6.36399H5.45069L5.55557 6.78161L5.61547 6.81249L5.66723 6.83971L5.72577 6.87602L6.01993 6.6781L6.26642 7.00675L6.11934 7.39896L6.14658 7.47885L6.16699 7.54605L6.19015 7.62773L6.50201 7.76574V8.23059L6.18879 8.37038L6.16699 8.45029L6.14522 8.5193L6.11798 8.59736L6.26642 8.98958L6.01994 9.31638L5.72578 9.12212L5.66586 9.15843L5.61547 9.18387L5.55417 9.21472L5.45067 9.63234H5.10206L4.99858 9.21834ZM11.9493 9.63415H6.77437V9.9973H11.1322V13.2657H5.41256V9.9973H5.64679L5.75845 9.55061L6.07305 9.76126L6.59733 9.06217L6.43936 8.64274L6.77437 8.49385V7.5061L6.44074 7.35721L6.59733 6.93775L6.07303 6.2387L5.75845 6.44934L5.64679 6.00265H5.41256V4.1869H6.50201V2.73429H11.1322V6.00265H6.77438V6.3658H11.9493L11.9493 9.63415Z" fill="black"/>
<path d="M7.04674 6.72897H7.31911V7.81842H7.04674L7.04674 6.72897ZM8.68092 6.72897H8.95329V7.81842H8.68092V6.72897ZM9.22565 6.72897H9.49801V7.81842H9.22565V6.72897ZM10.8598 6.72897H11.1322V7.81842H10.8598V6.72897ZM11.4045 6.72897H11.6769V7.81842H11.4046L11.4045 6.72897ZM8.00002 7.81842C8.22564 7.81842 8.40856 7.57454 8.40856 7.2737C8.40856 6.97285 8.22564 6.72897 8.00002 6.72897C7.77439 6.72897 7.59147 6.97287 7.59147 7.2737C7.59147 7.57453 7.77439 7.81842 8.00002 7.81842ZM8.00002 7.09213C8.01799 7.09195 8.03581 7.09651 8.05245 7.10555C8.06909 7.11459 8.08423 7.12794 8.09699 7.14482C8.10974 7.16169 8.11987 7.18177 8.12678 7.20389C8.13369 7.22601 8.13724 7.24974 8.13724 7.2737C8.13724 7.29766 8.13369 7.32139 8.12678 7.34351C8.11987 7.36563 8.10974 7.38571 8.09699 7.40259C8.08423 7.41947 8.06909 7.43281 8.05245 7.44186C8.03581 7.4509 8.01799 7.45546 8.00002 7.45528C7.96408 7.45491 7.92971 7.43562 7.9044 7.40161C7.87908 7.36759 7.86488 7.32162 7.86488 7.2737C7.86488 7.22579 7.87908 7.17981 7.9044 7.1458C7.92971 7.11179 7.96408 7.0925 8.00002 7.09213ZM10.1789 7.81842C10.4045 7.81842 10.5875 7.57454 10.5875 7.2737C10.5875 6.97285 10.4045 6.72897 10.1789 6.72897C9.9533 6.72897 9.77038 6.97287 9.77038 7.2737C9.77038 7.57453 9.95329 7.81842 10.1789 7.81842ZM10.1789 7.09213C10.1969 7.09195 10.2147 7.09651 10.2314 7.10555C10.248 7.11459 10.2631 7.12794 10.2759 7.14482C10.2886 7.16169 10.2988 7.18177 10.3057 7.20389C10.3126 7.22601 10.3161 7.24974 10.3161 7.2737C10.3161 7.29766 10.3126 7.32139 10.3057 7.34351C10.2988 7.36563 10.2886 7.38571 10.2759 7.40259C10.2631 7.41947 10.248 7.43281 10.2314 7.44186C10.2147 7.4509 10.1969 7.45546 10.1789 7.45528C10.143 7.45491 10.1086 7.43562 10.0833 7.40161C10.058 7.36759 10.0438 7.32162 10.0438 7.2737C10.0438 7.22579 10.058 7.17981 10.0833 7.1458C10.1086 7.11179 10.143 7.0925 10.1789 7.09213ZM11.4046 8.18158H11.6769V9.27103H11.4046V8.18158ZM9.77038 8.18158H10.0427V9.27103H9.77038V8.18158ZM8.1362 8.18158H8.40856V9.27103H8.1362V8.18158ZM7.59147 8.18158H7.86383V9.27103H7.59147V8.18158ZM7.04675 8.18158H7.31911V9.27103H7.04674L7.04675 8.18158ZM10.3151 8.72631C10.3151 9.02714 10.498 9.27103 10.7236 9.27103C10.9493 9.27103 11.1322 9.02714 11.1322 8.72631C11.1322 8.42547 10.9493 8.18158 10.7236 8.18158C10.498 8.18158 10.3151 8.42546 10.3151 8.72631ZM10.7236 8.54473C10.7416 8.54454 10.7594 8.5491 10.7761 8.55815C10.7927 8.56719 10.8079 8.58053 10.8206 8.59741C10.8334 8.61429 10.8435 8.63437 10.8504 8.65649C10.8573 8.67861 10.8609 8.70234 10.8609 8.7263C10.8609 8.75026 10.8573 8.77399 10.8504 8.79611C10.8435 8.81823 10.8334 8.83831 10.8206 8.85519C10.8079 8.87207 10.7927 8.88541 10.7761 8.89445C10.7594 8.9035 10.7416 8.90806 10.7236 8.90787C10.6877 8.90751 10.6533 8.88821 10.628 8.8542C10.6027 8.82019 10.5885 8.77422 10.5885 8.7263C10.5885 8.67838 10.6027 8.63241 10.628 8.5984C10.6533 8.56439 10.6877 8.54509 10.7236 8.54473ZM9.08947 9.27102C9.3151 9.27102 9.49801 9.02714 9.49801 8.72631C9.49801 8.42547 9.3151 8.18158 9.08947 8.18158C8.86383 8.18158 8.68092 8.42546 8.68092 8.72631C8.68092 9.02715 8.86384 9.27102 9.08947 9.27102ZM9.08947 8.54473C9.10744 8.54454 9.12526 8.5491 9.1419 8.55815C9.15854 8.56719 9.17368 8.58053 9.18644 8.59741C9.19919 8.61429 9.20932 8.63437 9.21623 8.65649C9.22314 8.67861 9.22669 8.70234 9.22669 8.7263C9.22669 8.75026 9.22314 8.77399 9.21623 8.79611C9.20932 8.81823 9.19919 8.83831 9.18644 8.85519C9.17368 8.87207 9.15854 8.88541 9.1419 8.89445C9.12526 8.9035 9.10744 8.90806 9.08947 8.90787C9.05353 8.90751 9.01916 8.88821 8.99384 8.8542C8.96853 8.82019 8.95432 8.77422 8.95432 8.7263C8.95432 8.67838 8.96853 8.63241 8.99384 8.5984C9.01916 8.56439 9.05353 8.54509 9.08947 8.54473ZM10.5875 3.09747H10.8598V3.46062H10.5875V3.09747ZM8.40856 3.09747H10.3151V3.46062H8.40856V3.09747ZM6.77438 3.82377H10.8598V4.18692H6.77438V3.82377ZM5.68494 4.55008H5.9573V4.91324H5.68494V4.55008ZM6.22966 4.55008H10.8598V4.91324H6.22966L6.22966 4.55008ZM5.68494 5.27637H10.8598V5.63953H5.68494V5.27637ZM5.68494 10.3605H5.9573V10.7236H5.68494V10.3605ZM6.22966 10.3605H10.8598V10.7236H6.22966L6.22966 10.3605ZM7.31911 11.0868H10.8598V11.4499H7.31911V11.0868ZM5.68494 11.0868H7.04674V11.4499H5.68494V11.0868ZM5.68494 11.8131H10.8598V12.1762H5.68494V11.8131ZM10.5875 12.5394H10.8598V12.9025H10.5875V12.5394ZM5.68494 12.5394H10.3151V12.9025H5.68494V12.5394Z" fill="black"/>
</g>
<defs>
<clipPath id="clip0_9_70">
<rect width="16" height="16" rx="8" fill="white"/>
</clipPath>
</defs>
</svg>
