<svg width="20" height="20" viewBox="0 0 20 20" fill="none" xmlns="http://www.w3.org/2000/svg">
<g clip-path="url(#clip0_9_70)">
<path d="M0 0H20V20H0V0Z" fill="#C3C0F8"/>
<path d="M6.48115 9.50252C6.48063 8.7915 6.0479 8.21566 5.51461 8.21637C4.98132 8.21708 4.54947 8.79402 4.54999 9.50509C4.55051 10.2162 4.98324 10.792 5.51653 10.7912C6.0498 10.7905 6.48168 10.2136 6.48115 9.50252ZM5.51653 10.2742C5.1969 10.2742 4.93776 9.9287 4.93776 9.50252C4.93776 9.07634 5.1969 8.73083 5.51653 8.73083C5.83616 8.73083 6.09531 9.07633 6.09531 9.50252C6.09531 9.92872 5.83617 10.2742 5.51653 10.2742Z" fill="black"/>
<path d="M15.3556 6.67043H14.1981V1.52582H6.9808L5.32359 3.73542V6.67044H4.99176L4.83358 7.30325L4.38788 7.00483L3.64515 7.99516L3.86895 8.5894L3.39435 8.80032V10.1996L3.86895 10.4106L3.64515 11.0048L4.38792 11.9951L4.83358 11.6967L4.99176 12.3295H5.32359V17.4742H14.1981V12.3295H15.3556V6.67043ZM6.86697 2.40297V3.58366H5.98145L6.86697 2.40297ZM5.12296 11.226L5.03613 11.1797C5.0104 11.1677 4.9866 11.1548 4.96473 11.1411L4.87986 11.0897L4.46314 11.3701L4.11587 10.9045L4.32038 10.3488L4.28179 10.2382L4.25288 10.1405L4.22007 10.0273L3.78019 9.82925V9.17071L4.22393 8.9752L4.2548 8.85947L4.28565 8.76427L4.32424 8.65111L4.11395 8.09548L4.46313 7.63247L4.87985 7.90514L4.96474 7.8537L5.03613 7.81766L5.12296 7.77396L5.2696 7.18233H5.76346L5.91203 7.77396L5.99689 7.81771L6.07022 7.85627L6.15315 7.90771L6.56988 7.62732L6.91907 8.09291L6.71071 8.64855L6.7493 8.76171L6.77821 8.85691L6.81102 8.97263L7.25283 9.16814V9.82668L6.80909 10.0247L6.77821 10.1379L6.74737 10.2357L6.70878 10.3463L6.91907 10.9019L6.56989 11.3649L6.15316 11.0897L6.06828 11.1411L5.99689 11.1772L5.91005 11.2209L5.76342 11.8125H5.26956L5.12296 11.226ZM14.9698 11.8151H7.63867V12.3295H13.8122V16.9597H5.70943V12.3295H6.04126L6.19944 11.6967L6.64513 11.9951L7.38786 11.0048L7.16406 10.4106L7.63867 10.1996V8.80032L7.16602 8.5894L7.38786 7.99516L6.6451 7.00483L6.19944 7.30325L6.04126 6.67044H5.70943V4.09812H7.25283V2.04026H13.8122V6.67044H7.63868V7.1849H14.9698L14.9698 11.8151Z" fill="black"/>
<path d="M8.02457 7.69937H8.41042V9.24276H8.02455L8.02457 7.69937ZM10.3396 7.69937H10.7255V9.24276H10.3396V7.69937ZM11.1113 7.69937H11.4972V9.24276H11.1113V7.69937ZM13.4264 7.69937H13.8123V9.24276H13.4264V7.69937ZM14.1981 7.69937H14.584V9.24276H14.1981L14.1981 7.69937ZM9.37503 9.24276C9.69467 9.24276 9.9538 8.89726 9.9538 8.47107C9.9538 8.04487 9.69467 7.69937 9.37503 7.69937C9.0554 7.69937 8.79626 8.04489 8.79626 8.47107C8.79626 8.89724 9.0554 9.24276 9.37503 9.24276ZM9.37503 8.21385C9.40049 8.21359 9.42574 8.22005 9.44932 8.23286C9.47289 8.24567 9.49434 8.26457 9.51241 8.28848C9.53048 8.3124 9.54482 8.34084 9.55461 8.37218C9.5644 8.40352 9.56944 8.43713 9.56944 8.47107C9.56944 8.50502 9.5644 8.53863 9.55461 8.56997C9.54482 8.60131 9.53048 8.62975 9.51241 8.65366C9.49434 8.67757 9.47289 8.69648 9.44932 8.70929C9.42574 8.7221 9.40049 8.72856 9.37503 8.7283C9.32412 8.72778 9.27543 8.70045 9.23957 8.65227C9.20371 8.60409 9.18359 8.53896 9.18359 8.47107C9.18359 8.40319 9.20371 8.33806 9.23957 8.28988C9.27543 8.2417 9.32412 8.21437 9.37503 8.21385ZM12.4618 9.24276C12.7814 9.24276 13.0406 8.89726 13.0406 8.47107C13.0406 8.04487 12.7814 7.69937 12.4618 7.69937C12.1422 7.69937 11.883 8.04489 11.883 8.47107C11.883 8.89724 12.1422 9.24276 12.4618 9.24276ZM12.4618 8.21385C12.4873 8.21359 12.5125 8.22005 12.5361 8.23286C12.5597 8.24567 12.5811 8.26457 12.5992 8.28848C12.6173 8.3124 12.6316 8.34084 12.6414 8.37218C12.6512 8.40352 12.6562 8.43713 12.6562 8.47107C12.6562 8.50502 12.6512 8.53863 12.6414 8.56997C12.6316 8.60131 12.6173 8.62975 12.5992 8.65366C12.5811 8.67757 12.5597 8.69648 12.5361 8.70929C12.5125 8.7221 12.4873 8.72856 12.4618 8.7283C12.4109 8.72778 12.3622 8.70045 12.3264 8.65227C12.2905 8.60409 12.2704 8.53896 12.2704 8.47107C12.2704 8.40319 12.2905 8.33806 12.3264 8.28988C12.3622 8.2417 12.4109 8.21437 12.4618 8.21385ZM14.1981 9.75723H14.584V11.3006H14.1981V9.75723ZM11.883 9.75723H12.2689V11.3006H11.883V9.75723ZM9.56796 9.75723H9.9538V11.3006H9.56796V9.75723ZM8.79626 9.75723H9.18211V11.3006H8.79626V9.75723ZM8.02458 9.75723H8.41042V11.3006H8.02455L8.02458 9.75723ZM12.6547 10.5289C12.6547 10.9551 12.9139 11.3006 13.2335 11.3006C13.5532 11.3006 13.8123 10.9551 13.8123 10.5289C13.8123 10.1027 13.5531 9.75723 13.2335 9.75723C12.9139 9.75723 12.6547 10.1027 12.6547 10.5289ZM13.2335 10.2717C13.259 10.2714 13.2842 10.2779 13.3078 10.2907C13.3314 10.3035 13.3528 10.3224 13.3709 10.3463C13.389 10.3702 13.4033 10.3987 13.4131 10.43C13.4229 10.4614 13.4279 10.495 13.4279 10.5289C13.4279 10.5629 13.4229 10.5965 13.4131 10.6278C13.4033 10.6592 13.389 10.6876 13.3709 10.7115C13.3528 10.7354 13.3314 10.7543 13.3078 10.7671C13.2842 10.7799 13.259 10.7864 13.2335 10.7861C13.1826 10.7856 13.1339 10.7583 13.098 10.7101C13.0622 10.6619 13.0421 10.5968 13.0421 10.5289C13.0421 10.461 13.0622 10.3959 13.098 10.3477C13.1339 10.2995 13.1826 10.2722 13.2335 10.2717ZM10.9184 11.3006C11.2381 11.3006 11.4972 10.9551 11.4972 10.5289C11.4972 10.1027 11.2381 9.75723 10.9184 9.75723C10.5988 9.75723 10.3396 10.1027 10.3396 10.5289C10.3396 10.9551 10.5988 11.3006 10.9184 11.3006ZM10.9184 10.2717C10.9439 10.2714 10.9691 10.2779 10.9927 10.2907C11.0163 10.3035 11.0377 10.3224 11.0558 10.3463C11.0739 10.3702 11.0882 10.3987 11.098 10.43C11.1078 10.4614 11.1128 10.495 11.1128 10.5289C11.1128 10.5629 11.1078 10.5965 11.098 10.6278C11.0882 10.6592 11.0739 10.6876 11.0558 10.7115C11.0377 10.7354 11.0163 10.7543 10.9927 10.7671C10.9691 10.7799 10.9439 10.7864 10.9184 10.7861C10.8675 10.7856 10.8188 10.7583 10.783 10.7101C10.7471 10.6619 10.727 10.5968 10.727 10.5289C10.727 10.461 10.7471 10.3959 10.783 10.3477C10.8188 10.2995 10.8675 10.2722 10.9184 10.2717ZM13.0406 2.55475H13.4264V3.06921H13.0406V2.55475ZM9.9538 2.55475H12.6547V3.06921H9.9538V2.55475ZM7.63872 3.58366H13.4264V4.09814H7.63872V3.58366ZM6.09534 4.61261H6.48118V5.12708H6.09534V4.61261ZM6.86702 4.61261H13.4264V5.12708H6.86703L6.86702 4.61261ZM6.09534 5.64153H13.4264V6.156H6.09534V5.64153ZM6.09534 12.844H6.48118V13.3585H6.09534V12.844ZM6.86702 12.844H13.4264V13.3585H6.86703L6.86702 12.844ZM8.41042 13.8729H13.4264V14.3874H8.41042V13.8729ZM6.09534 13.8729H8.02455V14.3874H6.09534V13.8729ZM6.09534 14.9019H13.4264V15.4163H6.09534V14.9019ZM13.0406 15.9308H13.4264V16.4453H13.0406V15.9308ZM6.09534 15.9308H12.6547V16.4453H6.09534V15.9308Z" fill="black"/>
</g>
<defs>
<clipPath id="clip0_9_70">
<rect width="20" height="20" rx="10" fill="white"/>
</clipPath>
</defs>
</svg>
