<svg xmlns="http://www.w3.org/2000/svg" xml:space="preserve" width="2000" height="1500" data-id="lg_EWOVRPRWGVuzx2W0tH" data-version="1" viewBox="0 0 2000 1500"><path fill="#060500" stroke="transparent" d="M0 0h2000v1500H0z"/><g data-padding="20"><g fill="#b0acf3"><path d="M744.66 750.17c-.046-47.053-38.228-85.16-85.283-85.113s-85.16 38.227-85.114 85.283 38.228 85.162 85.283 85.113c47.053-.046 85.16-38.227 85.114-85.283m-85.114 51.068c-28.203 0-51.068-22.865-51.068-51.068s22.865-51.068 51.068-51.068 51.069 22.864 51.069 51.068-22.865 51.068-51.069 51.068"/><path d="M1527.703 562.75h-102.136V222.298H788.749L642.524 368.522v194.229h-29.279l-13.957 41.877-39.326-19.748-65.535 65.536 19.747 39.325-41.877 13.958v92.602l41.877 13.958-19.747 39.322 65.538 65.539 39.323-19.748 13.957 41.877h29.279v340.454h783.043V937.249h102.136ZM778.705 280.345v78.134h-78.134ZM624.822 864.222l-7.662-3.065q-3.405-1.19-6.3-2.552l-7.488-3.404-36.77 18.555-30.641-30.81 18.045-36.771-3.405-7.319-2.551-6.47-2.895-7.491-38.813-13.105v-43.58l39.153-12.938 2.724-7.659 2.722-6.3 3.405-7.488-18.555-36.77 30.81-30.64 36.77 18.044 7.49-3.404 6.299-2.385 7.662-2.892 12.938-39.152h43.576l13.109 39.152 7.488 2.895 6.47 2.552 7.318 3.404 36.77-18.555 30.811 30.811-18.385 36.77 3.405 7.489 2.551 6.3 2.895 7.658 38.983 12.938v43.58l-39.153 13.105-2.725 7.492-2.721 6.47-3.405 7.318 18.555 36.77-30.81 30.638-36.77-18.212-7.49 3.404-6.299 2.385-7.662 2.892-12.938 39.152h-43.576Zm868.836 38.982H846.796v34.045h544.726v306.409H676.569V937.249h29.279l13.957-41.877 39.326 19.748 65.535-65.539-19.747-39.322 41.877-13.958v-92.602l-41.704-13.958 19.574-39.325-65.538-65.536-39.323 19.748-13.957-41.877h-29.279V392.524h136.182V256.342h578.77v306.409H846.797v34.045h646.862Z"/><path d="M880.841 630.841h34.046v102.136H880.84Zm204.272 0h34.046v102.136h-34.046Zm68.091 0h34.045v102.136h-34.045Zm204.272 0h34.046v102.136h-34.046Zm68.09 0h34.046v102.136h-34.045ZM1000 732.977c28.203 0 51.068-22.864 51.068-51.068s-22.865-51.068-51.068-51.068-51.068 22.865-51.068 51.068 22.865 51.068 51.068 51.068m0-68.09a17.023 17.023 0 1 1 0 34.045 17.023 17.023 0 0 1 0-34.045m272.363 68.09c28.203 0 51.068-22.864 51.068-51.068s-22.865-51.068-51.068-51.068-51.068 22.865-51.068 51.068 22.864 51.068 51.068 51.068m0-68.09a17.023 17.023 0 1 1 0 34.045 17.023 17.023 0 0 1 0-34.045m153.204 102.136h34.045v102.136h-34.045Zm-204.272 0h34.045v102.136h-34.045Zm-204.272 0h34.045v102.136h-34.045Zm-68.091 0h34.045v102.136h-34.045Zm-68.09 0h34.045v102.136H880.84Zm408.543 51.068c0 28.203 22.865 51.068 51.069 51.068s51.068-22.865 51.068-51.068-22.865-51.068-51.068-51.068-51.069 22.864-51.069 51.068m51.069-17.023a17.023 17.023 0 1 1 0 34.045 17.023 17.023 0 0 1 0-34.045m-204.273 68.09c28.204 0 51.068-22.864 51.068-51.067s-22.864-51.068-51.068-51.068-51.068 22.864-51.068 51.068 22.865 51.068 51.068 51.068m0-68.091a17.023 17.023 0 1 1 0 34.045 17.023 17.023 0 0 1 0-34.045m187.25-510.68h34.045v34.045h-34.045Zm-272.363 0h238.317v34.045h-238.317Zm-204.272 68.09h510.68v34.046h-510.68ZM710.615 426.57h34.045v34.046h-34.045Zm68.09 0h578.771v34.046h-578.77Zm-68.09 68.09h646.861v34.046H710.615Zm0 476.636h34.045v34.045h-34.045Zm68.09 0h578.771v34.045h-578.77Zm136.182 68.09h442.59v34.046h-442.59Zm-204.272 0H880.84v34.046H710.615Zm0 68.091h646.861v34.046H710.615Zm612.816 68.09h34.045v34.046h-34.045Zm-612.816 0h578.77v34.046h-578.77Z"/></g><path fill="transparent" stroke="transparent" stroke-width="3.483" d="M437.5 187.5h1125v1125h-1125z"/></g></svg>